<svg xmlns="http://www.w3.org/2000/svg" data-color-count="5" width="53" height="40" viewBox="0 0 53 40"><g fill="none" fill-rule="evenodd"><rect fill="#9CF" fill-rule="nonzero" x=".67" y="8.3" width="16.5" height="27.36" rx="4.31"/><path d="M9.304 27.407a6.282 6.282 0 01-3.023-.948 4.585 4.585 0 00-2.074-.74.548.548 0 01-.555-.556.563.563 0 01.555-.556 5.548 5.548 0 012.6.852 5.252 5.252 0 002.497.815 5.252 5.252 0 002.496-.792 5.467 5.467 0 012.585-.823.548.548 0 01.556.556.563.563 0 01-.556.555 4.519 4.519 0 00-2.074.697 6.296 6.296 0 01-3.007.94zm0 4.993a6.282 6.282 0 01-3.023-.94 4.444 4.444 0 00-2.074-.742.556.556 0 110-1.11 5.46 5.46 0 012.6.844 5.096 5.096 0 002.497.815 5.252 5.252 0 002.496-.793 5.185 5.185 0 012.6-.822.556.556 0 110 1.11 4.6 4.6 0 00-2.074.697 6.296 6.296 0 01-3.022.94zm-3.89-14.133a4.837 4.837 0 01-1.784-.415v-1.408a5.718 5.718 0 001.066.423c.33.1.67.156 1.015.163.18.01.36-.02.526-.09a.289.289 0 00.17-.288.304.304 0 00-.126-.237 1.822 1.822 0 00-.4-.222l-.74-.297a3.622 3.622 0 01-.867-.444 1.482 1.482 0 01-.481-.556 1.689 1.689 0 01-.156-.74 1.393 1.393 0 01.452-1.097 2.348 2.348 0 011.348-.489v-.577h.86v.57a4.95 4.95 0 011.696.415l-.504 1.207a3.963 3.963 0 00-1.563-.422.918.918 0 00-.474.089.252.252 0 00-.14.237.319.319 0 00.103.237 1.4 1.4 0 00.34.2c.17.074.393.163.69.26a3.348 3.348 0 011.266.74c.263.277.402.648.385 1.03a1.57 1.57 0 01-.452 1.163 2.222 2.222 0 01-1.31.548v.815h-.92v-.815z" fill="#E8F1F7" fill-rule="nonzero"/><rect fill="#9CF" fill-rule="nonzero" x="36.16" y="8.3" width="16.5" height="27.36" rx="4.31"/><path d="M43.889 27.407a6.23 6.23 0 01-3.015-.948 4.644 4.644 0 00-2.081-.74.548.548 0 01-.556-.556.563.563 0 01.556-.556 5.548 5.548 0 012.592.852 5.282 5.282 0 002.504.815 5.222 5.222 0 002.489-.792 5.526 5.526 0 012.592-.823.54.54 0 01.548.556.556.556 0 01-.555.555 4.511 4.511 0 00-2.082.697 6.289 6.289 0 01-2.992.94zm0 4.993a6.222 6.222 0 01-3.015-.94 4.444 4.444 0 00-2.081-.742.556.556 0 110-1.11 5.46 5.46 0 012.592.844 5.119 5.119 0 002.504.815 5.222 5.222 0 002.489-.793 5.237 5.237 0 012.607-.822.556.556 0 110 1.11 4.6 4.6 0 00-2.081.697 6.289 6.289 0 01-3.015.941zM40 18.267a4.837 4.837 0 01-1.785-.415v-1.408a5.718 5.718 0 001.066.423c.33.1.671.156 1.015.163.18.01.36-.02.526-.09a.289.289 0 00.17-.288.319.319 0 00-.118-.237 1.74 1.74 0 00-.407-.222c-.186-.082-.437-.178-.741-.297a3.622 3.622 0 01-.867-.444 1.54 1.54 0 01-.481-.556 1.793 1.793 0 01-.148-.74 1.385 1.385 0 01.444-1.097A2.363 2.363 0 0140 12.548v-.578h.881v.57a5.03 5.03 0 011.704.416l-.51 1.207a3.904 3.904 0 00-1.594-.4.956.956 0 00-.481.089.26.26 0 00-.133.237.311.311 0 00.096.237c.106.082.224.15.348.2.223.098.45.184.682.26a3.393 3.393 0 011.274.74 1.437 1.437 0 01.385 1.03 1.6 1.6 0 01-.43 1.14 2.222 2.222 0 01-1.318.548v.815H40v-.792z" fill="#E8F1F7" fill-rule="nonzero"/><rect fill="#006AEB" fill-rule="nonzero" x="14.7" y="4.21" width="24.13" height="35.64" rx="4.31"/><path d="M34.511 23.904a6.289 6.289 0 01-2.963-.934 4.593 4.593 0 00-2.126-.74 4.444 4.444 0 00-2.074.696 6.296 6.296 0 01-3.007.918 6.252 6.252 0 01-3.015-.948 4.615 4.615 0 00-2.082-.74.54.54 0 01-.548-.556.556.556 0 01.556-.556 5.496 5.496 0 012.592.852 5.304 5.304 0 002.504.815 5.282 5.282 0 002.496-.792 5.467 5.467 0 012.586-.823 5.504 5.504 0 012.63.852 5.185 5.185 0 002.466.808.556.556 0 110 1.11l-.015.038zm0 5.03A6.207 6.207 0 0131.548 28a4.644 4.644 0 00-2.126-.74 4.548 4.548 0 00-2.074.696 6.296 6.296 0 01-3.03.933 6.252 6.252 0 01-3.014-.94 4.444 4.444 0 00-2.082-.742.556.556 0 010-1.11 5.407 5.407 0 012.593.844 5.185 5.185 0 002.504.815 5.282 5.282 0 002.496-.793 5.444 5.444 0 012.6-.822 5.667 5.667 0 012.63.852 5.185 5.185 0 002.466.807.563.563 0 01.556.563.556.556 0 01-.556.57zm0 5.036a6.37 6.37 0 01-2.963-.933 4.66 4.66 0 00-2.126-.74 4.444 4.444 0 00-2.074.74 6.296 6.296 0 01-3.007.919 6.252 6.252 0 01-3.015-.949 4.526 4.526 0 00-2.082-.74.548.548 0 01-.548-.556.556.556 0 01.556-.555 5.57 5.57 0 012.592.844 5.23 5.23 0 002.504.822 5.185 5.185 0 002.496-.8 5.548 5.548 0 012.586-.822 5.593 5.593 0 012.63.86 5.289 5.289 0 002.466.807.556.556 0 110 1.11l-.015-.007z" fill="#04D3DF" fill-rule="nonzero"/><path d="M41.296 6.082a5.926 5.926 0 11-11.852 0 5.926 5.926 0 0111.852 0z" fill="#FEEA6F"/><path d="M32.97 5.704a.556.556 0 00-.785-.037.556.556 0 00-.037.785l1.86 2.074a.556.556 0 00.822 0l3.755-4.082a.556.556 0 10-.807-.74L34.43 7.363l-1.46-1.66z" fill="#FFF"/><path d="M20.43 14.756a4.874 4.874 0 01-1.793-.415v-1.408c.345.172.705.313 1.074.423a3.63 3.63 0 001.008.163 1.193 1.193 0 00.533-.09.289.289 0 00.163-.288.296.296 0 00-.119-.237 1.822 1.822 0 00-.4-.223l-.74-.296a3.54 3.54 0 01-.874-.444 1.615 1.615 0 01-.482-.556 1.793 1.793 0 01-.148-.74 1.37 1.37 0 01.452-1.097 2.326 2.326 0 011.348-.489v-.578h.874v.57a4.985 4.985 0 011.704.416l-.504 1.207a3.963 3.963 0 00-1.6-.4.904.904 0 00-.474.089.252.252 0 00-.14.237.311.311 0 00.095.237c.107.082.224.15.349.2.222.098.45.184.681.26a3.393 3.393 0 011.274.74c.263.277.402.648.385 1.03a1.57 1.57 0 01-.452 1.163 2.222 2.222 0 01-1.318.548v.778h-.896v-.8z" fill="#FFF9C9" fill-rule="nonzero"/></g></svg>