<svg xmlns="http://www.w3.org/2000/svg" data-color-count="3" width="50" height="40" viewBox="0 0 50 40"><g fill="none"><rect fill="#9CF" y="9.44" width="13.33" height="21.67" rx="3.42"/><rect fill="#FFF9C9" x="2.78" y="6.67" width="18.33" height="27.22" rx="4.31"/><path d="M13.889 25.946a3.41 3.41 0 00-1.607.56 4.797 4.797 0 01-2.337.716 4.817 4.817 0 01-2.344-.76 3.41 3.41 0 00-1.614-.573.438.438 0 01-.431-.445.445.445 0 01.43-.444 4.145 4.145 0 012.011.681 4.089 4.089 0 001.948.652 3.965 3.965 0 001.94-.638 4.229 4.229 0 012.004-.638m-.014-2.458a3.44 3.44 0 00-1.604.561c-.706.449-1.51.7-2.334.729a4.737 4.737 0 01-2.34-.729 3.32 3.32 0 00-1.61-.583.456.456 0 01-.431-.459.449.449 0 01.43-.451 4.168 4.168 0 012.007.728 3.88 3.88 0 001.944.663 3.911 3.911 0 001.938-.648 4.092 4.092 0 012.014-.663m4.011 8.809a4.878 4.878 0 01-2.326-.701 3.604 3.604 0 00-1.649-.603 3.485 3.485 0 00-1.614.546 4.913 4.913 0 01-2.347.701 4.878 4.878 0 01-2.354-.736 3.437 3.437 0 00-1.621-.56.434.434 0 01-.433-.435c0-.24.194-.435.433-.435a4.23 4.23 0 012.019.66 4.022 4.022 0 001.956.637 4.126 4.126 0 001.949-.617 4.293 4.293 0 012.012-.63 4.398 4.398 0 012.054.665 4.182 4.182 0 001.921.638.434.434 0 01.433.435c0 .24-.194.435-.433.435zM7.348 16.474a5.271 5.271 0 01-1.792-.39v-1.329a6.205 6.205 0 001.073.392 3.638 3.638 0 001.015.16 1.24 1.24 0 00.526-.083.284.284 0 00.163-.273.268.268 0 00-.119-.224 1.856 1.856 0 00-.4-.21l-.74-.279a3.562 3.562 0 01-.867-.419 1.524 1.524 0 01-.481-.524 1.524 1.524 0 01-.156-.699c-.02-.389.146-.766.452-1.027a2.413 2.413 0 011.348-.461v-.552h.881v.545a5.187 5.187 0 011.674.398l-.504 1.139a4.14 4.14 0 00-1.6-.44 1.076 1.076 0 00-.473.077.256.256 0 00-.141.23.273.273 0 00.104.217c.1.083.216.149.34.195.223.093.45.174.682.245.475.137.911.377 1.273.699.267.262.41.615.393.978a1.41 1.41 0 01-.452 1.09 2.29 2.29 0 01-1.31.524v.77h-.89v-.749z" fill="#04D3DF"/><path d="M26.098 27.778h-7.544c-14.592-10.492-1.7-24.445-.163-24.445h7.707a2.836 2.836 0 012.79 2.795V24.94a2.836 2.836 0 01-2.79 2.838z" fill="#FFF9C9"/><path d="M11.837 15h.036c2.47 0 4.484 1.052 6.406 2.054 1.922 1.002 3.744 1.935 6.015 1.942.711.05 1.262.633 1.262 1.335s-.55 1.285-1.262 1.336c-2.933 0-5.232-1.2-7.26-2.25-1.809-.933-3.368-1.74-5.183-1.746a6.545 6.545 0 00-1.295.133" fill="#04D3DF"/><path d="M33.911 24.163a14.374 14.374 0 003.201-10.952C36.423 6.86 31.65 1.725 25.39.604a35.638 35.638 0 00-4.297.036c-7.71.547-13.598 7.142-13.304 14.903.294 7.76 6.663 13.887 14.393 13.844l2.291.057a14.949 14.949 0 007.656-3.454m.094-.272l3.668 3.607-.318.344a.751.751 0 000 1.017l8.682 8.48a.691.691 0 00.494.198l1.975.08.86-2.875a.752.752 0 000-1.01l-7.166-8.582-1.953-.074a.644.644 0 00-.536.22l-.318.344-3.632-3.578m-9.54 2.693c-6.236.76-11.91-3.67-12.684-9.903-.773-6.232 3.647-11.914 9.88-12.7 6.232-.785 11.924 3.622 12.722 9.852a11.386 11.386 0 01-2.318 8.42 11.39 11.39 0 01-7.6 4.302v.029z" fill="#9CF"/><path d="M38.785 13.016c.94 7.76-4.583 14.816-12.34 15.766-7.758.95-14.82-4.563-15.78-12.32-.961-7.759 4.542-14.829 12.297-15.8 7.778-.95 14.857 4.577 15.823 12.354zm-15.697-9.6a11.11 11.11 0 1012.384 9.67c-.754-6.088-6.296-10.415-12.384-9.67z" fill="#006AEB"/><path fill="#006AEB" d="M33.344 25.173l1.74-1.84 5.036 4.794-1.74 1.84z"/><path d="M37.358 29.485l1.991-2.104a.98.98 0 011.385-.039.98.98 0 01.003.002l8.3 7.902a.98.98 0 01.037 1.384l-1.991 2.104a.98.98 0 01-1.386.039.98.98 0 01-.002-.002l-8.3-7.902a.98.98 0 01-.037-1.384z" fill="#006AEB"/></g></svg>