<svg xmlns="http://www.w3.org/2000/svg" data-color-count="4" width="45" height="41" viewBox="0 0 45 41" xmlns:xlink="http://www.w3.org/1999/xlink"><defs><path id="a" d="M0 .583h38.762V37.5H0z"/><path id="c" d="M.423.583h38.762V37.5H.423z"/></defs><g fill="none" fill-rule="evenodd"><path d="M35.177 25.625H21.074a2.323 2.323 0 01-2.324-2.323V2.323A2.323 2.323 0 0121.074 0h14.103A2.323 2.323 0 0137.5 2.323v20.979a2.323 2.323 0 01-2.323 2.323" fill="#FFF9C9"/><path d="M27.525 17.194a8.253 8.253 0 01-2.93-.68v-2.306c.537.273 1.12.5 1.75.684.63.183 1.182.274 1.66.274.393 0 .68-.047.864-.142.183-.095.274-.254.274-.475a.481.481 0 00-.198-.39c-.132-.106-.352-.227-.66-.361a22.742 22.742 0 00-1.246-.486c-.588-.218-1.062-.462-1.424-.733-.36-.27-.623-.574-.788-.91s-.246-.752-.246-1.253c0-.763.246-1.36.736-1.791.49-.43 1.227-.696 2.208-.798v-.952h1.438v.937c.921.05 1.85.278 2.784.68l-.826 1.98c-.968-.435-1.84-.653-2.618-.653-.37 0-.63.045-.781.136a.437.437 0 00-.226.4.49.49 0 00.163.377c.109.1.298.21.566.333.268.124.642.265 1.118.428.968.342 1.662.732 2.084 1.17.42.437.631 1.001.631 1.69 0 .779-.246 1.41-.739 1.896-.493.487-1.212.788-2.156.903v1.34h-1.438v-1.298z" fill="#04D3DF"/><g transform="translate(0 2.5)"><mask id="b" fill="#fff"><use xlink:href="#a"/></mask><path d="M37.034 28.715H12.161c-1.42 0-1.491-1.247-1.491-1.495 0-.41.164-1.315 1.348-1.397h25.037a1.72 1.72 0 001.707-1.724c0-.806-.541-1.723-1.295-1.723H13.106L10.149 5.13C9.466 2.612 8.359.583 5.307.583h-3.6C.765.583 0 1.356 0 2.307S.765 4.03 1.707 4.03h2.844c1.222 0 2.276.73 2.506 2.466L9.648 22.99l-.007.004c-1.562.885-2.385 2.553-2.385 4.226 0 2.05 1.267 4.198 3.628 4.777a3.952 3.952 0 00-.328 1.572c0 2.168 1.746 3.931 3.898 3.931 2.15 0 3.895-1.763 3.895-3.931 0-.497-.1-.97-.267-1.406h10.582c-.17.436-.27.909-.27 1.406 0 2.168 1.745 3.931 3.896 3.931 2.152 0 3.896-1.763 3.896-3.931 0-.497-.101-.97-.267-1.406h1.115c.943 0 1.708-.773 1.708-1.724 0-.954-.765-1.724-1.708-1.724" fill="#9CF" mask="url(#b)"/></g><path d="M40.272 8.639l-28.12-.018 3.013 16.612h25.107l3.173-13.648c.205-.999.045-1.642-.517-2.211-.56-.569-1.398-.735-2.656-.735z" stroke="#006AEB" stroke-width="1.5"/><path stroke="#006AEB" stroke-width="1.5" stroke-linecap="round" stroke-linejoin="round" d="M13.663 13.984h28.698m-28.698 6.039H40.96m-19.023 5.21V9.118m6.071 16.115V9.118M15.865 25.233V9.118M34.08 25.233V9.118m6.072 16.115V9.118"/><g transform="translate(2.5 2.5)"><mask id="d" fill="#fff"><use xlink:href="#c"/></mask><path d="M37.457 28.715H12.584c-1.42 0-1.491-1.247-1.491-1.495 0-.41.163-1.315 1.347-1.397h25.038a1.72 1.72 0 001.707-1.724c0-.806-.542-1.723-1.295-1.723H13.528L10.571 5.13C9.888 2.612 8.782.583 5.73.583h-3.6c-.943 0-1.708.773-1.708 1.724S1.188 4.03 2.13 4.03h2.843c1.223 0 2.276.73 2.506 2.466l2.592 16.493c-.003.003-.005.005-.008.005-1.561.885-2.386 2.553-2.386 4.226 0 2.05 1.269 4.198 3.63 4.777a3.962 3.962 0 00-.328 1.572c0 2.168 1.746 3.931 3.897 3.931 2.15 0 3.895-1.763 3.895-3.931 0-.497-.1-.97-.266-1.406h10.58a3.902 3.902 0 00-.268 1.406c0 2.168 1.744 3.931 3.895 3.931 2.152 0 3.895-1.763 3.895-3.931 0-.497-.1-.97-.266-1.406h1.116c.942 0 1.707-.773 1.707-1.724 0-.954-.765-1.724-1.707-1.724" fill="#006AEB" mask="url(#d)"/></g><path d="M18.833 36.35a1.436 1.436 0 11-2.872 0 1.436 1.436 0 012.872 0m17.805 0a1.436 1.436 0 11-2.871 0 1.436 1.436 0 012.871 0" fill="#FEEA6F"/></g></svg>